<svg width="24" height="24" viewBox="0 0 24 24" fill="none" xmlns="http://www.w3.org/2000/svg">
  <!-- Book Outline -->
  <path d="M4 19.5A2.5 2.5 0 0 1 6.5 17H20" stroke="hsl(351 100% 85%)" stroke-width="2" stroke-linecap="round" stroke-linejoin="round"/>
  <path d="M6.5 2H20v15H6.5A2.5 2.5 0 0 1 4 14.5V4.5A2.5 2.5 0 0 1 6.5 2z" stroke="hsl(351 100% 85%)" stroke-width="2" stroke-linecap="round" stroke-linejoin="round"/>
  <!-- Correct Heart Shape -->
  <path d="M12.4,8.5c-0.8-0.8-2-0.8-2.8,0c-0.8,0.8-0.8,2,0,2.8l1.4,1.4l1.4-1.4c0.8-0.8,0.8-2,0-2.8C12.5,8.5,12.5,8.5,12.4,8.5L12.4,8.5z" fill="hsl(351 100% 85%)"/>
</svg>
