<svg width="24" height="24" viewBox="0 0 24 24" fill="none" xmlns="http://www.w3.org/2000/svg">
<path d="M2 3h6a4 4 0 0 1 4 4v14a3 3 0 0 0-3-3H2zM22 3h-6a4 4 0 0 0-4 4v14a3 3 0 0 1 3-3h7z" stroke="#F48FB1" stroke-width="2" stroke-linecap="round" stroke-linejoin="round" fill="none"/>
<path d="M12.007 7.234c.825-.826 2.126-.93 3.075-.24.95.69 1.253 1.95.736 2.982l-3.818 4.75-3.818-4.75c-.517-1.032-.214-2.292.736-2.982.949-.69 2.25-.586 3.075.24z" fill="#F48FB1" stroke="#F48FB1" stroke-width="0.5"/>
</svg>
